<svg xmlns="http://www.w3.org/2000/svg" x="0px" y="0px"
width="24" height="24"
viewBox="0 0 172 172"
style=" fill:#000000;"><g transform=""><g fill="none" fill-rule="nonzero" stroke="none" stroke-width="1" stroke-linecap="butt" stroke-linejoin="miter" stroke-miterlimit="10" stroke-dasharray="" stroke-dashoffset="0" font-family="none" font-weight="none" font-size="none" text-anchor="none" style="mix-blend-mode: normal"><path d="M0,172v-172h172v172z" fill="none" stroke="none"></path><path d="" fill="none" stroke="none"></path><path d="" fill="none" stroke="none"></path><path d="" fill="none" stroke="none"></path><g id="original-icon" fill="#39c2d8" stroke="none" opacity="0" visibility="hidden"><path d="M143.33333,43h-57.33333l-14.33333,-14.33333h-43c-7.88333,0 -14.33333,6.45 -14.33333,14.33333v86c0,7.88333 6.45,14.33333 14.33333,14.33333h114.66667c7.88333,0 14.33333,-6.45 14.33333,-14.33333v-71.66667c0,-7.88333 -6.45,-14.33333 -14.33333,-14.33333zM60.458,107.5h-6.22783l-4.05633,-16.58367l-4.04917,16.58367h-6.24933l-5.934,-28.66667h7.20967l2.54417,16.11067l3.8055,-16.11067h5.32483l3.81267,16.082l2.57283,-16.082h7.181zM96.29133,107.5h-6.22783l-4.05633,-16.58367l-4.04917,16.58367h-6.24933l-5.934,-28.66667h7.20967l2.54417,16.11067l3.8055,-16.11067h5.32483l3.81267,16.082l2.57283,-16.082h7.181zM132.12467,107.5h-6.22783l-4.05633,-16.58367l-4.04917,16.58367h-6.24933l-5.934,-28.66667h7.20967l2.54417,16.11067l3.8055,-16.11067h5.32483l3.81267,16.082l2.57283,-16.082h7.181z"></path></g><g id="subtracted-icon" fill="#39c2d8" stroke="none"><path d="M157.66667,57.33333v33.51042c-6.40418,-3.05002 -13.55248,-4.78174 -21.09184,-4.84212l1.48384,-7.1683h-7.181l-1.21364,7.58612c-1.09381,0.14217 -2.17666,0.3197 -3.24738,0.53142l-1.92448,-8.11754h-5.32483l-2.63842,11.16981c-0.61229,0.26143 -1.21835,0.5347 -1.81791,0.81952l-1.89333,-11.98933h-7.20967l3.17096,15.31866c-4.56798,2.9877 -8.62135,6.69969 -11.99571,10.97159l5.44208,-26.29025h-7.181l-2.57283,16.082l-3.81267,-16.082h-5.32483l-3.8055,16.11067l-2.54417,-16.11067h-7.20967l5.934,28.66667h6.24933l4.04917,-16.58367l4.05633,16.58367l4.95328,0c-5.68129,8.13093 -9.01678,18.01639 -9.01678,28.66667c0,2.43273 0.17403,4.82555 0.51029,7.16667l-57.84363,0c-7.88333,0 -14.33333,-6.45 -14.33333,-14.33333v-86c0,-7.88333 6.45,-14.33333 14.33333,-14.33333h43l14.33333,14.33333h57.33333c7.88333,0 14.33333,6.45 14.33333,14.33333zM66.392,78.83333h-7.181l-2.57283,16.082l-3.81267,-16.082h-5.32483l-3.8055,16.11067l-2.54417,-16.11067h-7.20967l5.934,28.66667h6.24933l4.04917,-16.58367l4.05633,16.58367h6.22783z"></path></g><g stroke="none"><g id="Filled_3_" fill="#cccccc"><path d="M136.16667,100.33333c-19.78717,0 -35.83333,16.04617 -35.83333,35.83333c0,19.78717 16.04617,35.83333 35.83333,35.83333c19.78717,0 35.83333,-16.04617 35.83333,-35.83333c0,-19.78717 -16.04617,-35.83333 -35.83333,-35.83333zM157.66667,143.33333h-14.33333v14.33333h-14.33333v-14.33333h-14.33333v-14.33333h14.33333v-14.33333h14.33333v14.33333h14.33333z"></path></g><g id="Filled_3_" fill="#000000" opacity="0"><path d="M186.33333,136.16667c0,27.66333 -22.50333,50.16667 -50.16667,50.16667c-27.66333,0 -50.16667,-22.50333 -50.16667,-50.16667c0,-27.66333 22.50333,-50.16667 50.16667,-50.16667c27.66333,0 50.16667,22.50333 50.16667,50.16667z"></path></g></g><path d="M100.33333,172v-71.66667h71.66667v71.66667z" id="overlay-drag" fill="#ff0000" stroke="none" opacity="0"></path></g></g></svg>