<svg xmlns="http://www.w3.org/2000/svg" x="0px" y="0px"
width="24" height="24"
viewBox="0 0 172 172"
style=" fill:#000000;"><g fill="none" fill-rule="nonzero" stroke="none" stroke-width="1" stroke-linecap="butt" stroke-linejoin="miter" stroke-miterlimit="10" stroke-dasharray="" stroke-dashoffset="0" font-family="none" font-weight="none" font-size="none" text-anchor="none" style="mix-blend-mode: normal"><path d="M0,172v-172h172v172z" fill="none"></path><g fill="#39c2d8"><path d="M78.83333,21.5c-3.956,0 -7.16667,3.21067 -7.16667,7.16667v14.33333c0,3.956 3.21067,7.16667 7.16667,7.16667h14.33333c3.956,0 7.16667,-3.21067 7.16667,-7.16667v-14.33333c0,-3.956 -3.21067,-7.16667 -7.16667,-7.16667zM78.83333,71.66667c-3.956,0 -7.16667,3.21067 -7.16667,7.16667v14.33333c0,3.956 3.21067,7.16667 7.16667,7.16667h14.33333c3.956,0 7.16667,-3.21067 7.16667,-7.16667v-14.33333c0,-3.956 -3.21067,-7.16667 -7.16667,-7.16667zM78.83333,121.83333c-3.956,0 -7.16667,3.21067 -7.16667,7.16667v14.33333c0,3.956 3.21067,7.16667 7.16667,7.16667h14.33333c3.956,0 7.16667,-3.21067 7.16667,-7.16667v-14.33333c0,-3.956 -3.21067,-7.16667 -7.16667,-7.16667z"></path></g></g></svg>