<svg xmlns="http://www.w3.org/2000/svg" x="0px" y="0px"
width="24" height="24"
viewBox="0 0 172 172"
style=" fill:#000000;"><g transform=""><g fill="none" fill-rule="nonzero" stroke="none" stroke-width="1" stroke-linecap="butt" stroke-linejoin="miter" stroke-miterlimit="10" stroke-dasharray="" stroke-dashoffset="0" font-family="none" font-weight="none" font-size="none" text-anchor="none" style="mix-blend-mode: normal"><path d="M0,172v-172h172v172z" fill="none"></path><path d="" fill="none"></path><path d="" fill="none"></path><path d="" fill="none"></path><g id="original-icon" fill="#39c2d8" opacity="0" visibility="hidden"><path d="M71.66667,14.33333l-7.16667,7.16667h-35.83333v14.33333h21.5h71.66667h21.5v-14.33333h-35.83333l-7.16667,-7.16667zM35.83333,50.16667v93.16667c0,7.88333 6.45,14.33333 14.33333,14.33333h71.66667c7.88333,0 14.33333,-6.45 14.33333,-14.33333v-93.16667z"></path></g><g id="subtracted-icon" fill="#39c2d8"><path d="M100.33333,14.33333l7.16667,7.16667h35.83333v14.33333h-114.66667v-14.33333h35.83333l7.16667,-7.16667zM136.16667,50.16667l0,35.83333c-27.66333,0 -50.16667,22.50333 -50.16667,50.16667c0,7.68952 1.73875,14.98036 4.84375,21.5h-40.67709c-7.88333,0 -14.33333,-6.45 -14.33333,-14.33333v-93.16667z"></path></g><g><g id="Filled_3_" fill="#cccccc"><path d="M136.16667,100.33333c-19.78717,0 -35.83333,16.04617 -35.83333,35.83333c0,19.78717 16.04617,35.83333 35.83333,35.83333c19.78717,0 35.83333,-16.04617 35.83333,-35.83333c0,-19.78717 -16.04617,-35.83333 -35.83333,-35.83333zM157.66667,143.33333h-14.33333v14.33333h-14.33333v-14.33333h-14.33333v-14.33333h14.33333v-14.33333h14.33333v14.33333h14.33333z"></path></g><g id="Filled_3_" fill="#000000" opacity="0"><path d="M186.33333,136.16667c0,27.66333 -22.50333,50.16667 -50.16667,50.16667c-27.66333,0 -50.16667,-22.50333 -50.16667,-50.16667c0,-27.66333 22.50333,-50.16667 50.16667,-50.16667c27.66333,0 50.16667,22.50333 50.16667,50.16667z"></path></g></g></g></g></svg>