<svg xmlns="http://www.w3.org/2000/svg" x="0px" y="0px"
width="24" height="24"
viewBox="0 0 172 172"
style=" fill:#000000;"><g transform=""><g fill="none" fill-rule="nonzero" stroke="none" stroke-width="1" stroke-linecap="butt" stroke-linejoin="miter" stroke-miterlimit="10" stroke-dasharray="" stroke-dashoffset="0" font-family="none" font-weight="none" font-size="none" text-anchor="none" style="mix-blend-mode: normal"><path d="M0,172v-172h172v172z" fill="none" stroke="none"></path><path d="" fill="none" stroke="none"></path><path d="" fill="none" stroke="none"></path><path d="" fill="none" stroke="none"></path><g id="original-icon" fill="#39c2d8" stroke="none" opacity="0" visibility="hidden"><path d="M86,21.5c-19.61127,0 -37.15804,8.82697 -48.97689,22.68978l-15.52311,-15.52311v43h43l-17.25879,-17.25879c9.1948,-11.28751 23.09893,-18.57454 38.75879,-18.57454c27.65617,0 50.16667,22.50333 50.16667,50.16667h14.33333c0,-35.561 -28.93183,-64.5 -64.5,-64.5zM21.5,86c0,35.56817 28.93183,64.5 64.5,64.5c19.61127,0 37.15804,-8.82697 48.97689,-22.68978l15.52311,15.52311v-43h-43l17.25879,17.25879c-9.1948,11.28751 -23.09893,18.57455 -38.75879,18.57455c-27.65617,0 -50.16667,-22.5105 -50.16667,-50.16667z"></path></g><g id="subtracted-icon" fill="#39c2d8" stroke="none"><path d="M150.5,86h-14.33333c0,-27.66333 -22.5105,-50.16667 -50.16667,-50.16667c-15.65986,0 -29.56399,7.28703 -38.75879,18.57454l17.25879,17.25879h-43v-43l15.52311,15.52311c11.81885,-13.86281 29.36562,-22.68978 48.97689,-22.68978c35.56817,0 64.5,28.939 64.5,64.5zM35.83333,86c0,25.78079 19.56112,47.09011 44.61693,49.86155c1.56365,5.37921 4.12802,10.27766 7.08314,14.62042c-0.50968,0.01199 -1.02084,0.01802 -1.53341,0.01802c-35.56817,0 -64.5,-28.93183 -64.5,-64.5z"></path></g><g stroke="none"><g id="Filled_3_" fill="#cccccc"><path d="M169.53351,114.43218c1.69127,3.42555 2.43658,6.8081 2.46525,10.09031c0.15766,15.12114 -14.71265,28.15685 -21.03343,33.70366l-1.27562,1.12513c-5.27448,4.77283 -17.09907,12.64872 -17.09907,12.64872c0,0 -11.82459,-7.86873 -17.09907,-12.64872l-1.28279,-1.12513c-6.32078,-5.54681 -21.19109,-18.58252 -21.03343,-33.70366c0.03583,-3.28222 0.77397,-6.66477 2.46525,-10.09031c4.14936,-8.39187 11.58093,-14.08201 21.18393,-14.09634c6.05562,-0.00717 13.30087,3.58321 15.76612,7.6394c2.70891,-4.05619 9.71049,-7.64657 15.76612,-7.6394c9.603,0.01433 17.03457,5.70447 21.17676,14.09634z"></path></g><g id="Filled_3_" fill="#000000" opacity="0"><path d="M182.37931,108.07556c2.56558,5.18849 3.89136,10.66363 3.95586,16.29643c0.21499,21.70707 -18.08803,37.77418 -25.90659,44.62527l-1.28995,1.13229c-5.72597,5.18849 -17.3069,12.94255 -18.61118,13.80252c-2.40792,1.59811 -5.16699,2.40075 -7.94039,2.40075c-2.76624,0 -5.53247,-0.80264 -7.94039,-2.40075c-1.30429,-0.86714 -12.88522,-8.6212 -18.77601,-13.96018l-1.11796,-0.9818c-7.82573,-6.85109 -26.12875,-22.91103 -25.91376,-44.61811c0.0645,-5.6328 1.39028,-11.10795 3.95586,-16.29643c6.81526,-13.79535 19.52132,-22.05106 34.00465,-22.07256c0.01433,0 0.0215,0 0.03583,0c5.40348,0 10.96462,1.44762 15.84495,3.89853c4.87316,-2.45091 10.3913,-3.89853 15.65862,-3.89853c0.00717,0 0.0215,0 0.02867,0c14.48333,0.0215 27.18938,8.27004 34.01181,22.07256z"></path></g></g><path d="M93.1741,172v-71.66417h78.8259v71.66417z" id="overlay-drag" fill="#ff0000" stroke="none" opacity="0"></path></g></g></svg>