<svg xmlns="http://www.w3.org/2000/svg" x="0px" y="0px"
width="24" height="24"
viewBox="0 0 172 172"
style=" fill:#000000;"><g fill="none" fill-rule="nonzero" stroke="none" stroke-width="1" stroke-linecap="butt" stroke-linejoin="miter" stroke-miterlimit="10" stroke-dasharray="" stroke-dashoffset="0" font-family="none" font-weight="none" font-size="none" text-anchor="none" style="mix-blend-mode: normal"><path d="M0,172v-172h172v172z" fill="none"></path><g fill="#39c2d8"><path d="M35.83333,14.33333c-7.91917,0 -14.33333,6.41417 -14.33333,14.33333v14.33333c0,7.91917 6.41417,14.33333 14.33333,14.33333h14.33333c7.91917,0 14.33333,-6.41417 14.33333,-14.33333v-14.33333c0,-7.91917 -6.41417,-14.33333 -14.33333,-14.33333zM78.83333,28.66667v14.33333h71.66667v-14.33333zM35.83333,64.5c-7.83362,0 -14.33333,6.49972 -14.33333,14.33333v14.33333c0,7.83362 6.49972,14.33333 14.33333,14.33333h14.33333c7.83362,0 14.33333,-6.49972 14.33333,-14.33333v-14.33333c0,-7.83362 -6.49972,-14.33333 -14.33333,-14.33333zM35.83333,78.83333h14.33333v14.33333h-14.33333zM78.83333,78.83333v14.33333h71.66667v-14.33333zM35.83333,114.66667c-7.91917,0 -14.33333,6.41417 -14.33333,14.33333v14.33333c0,7.91917 6.41417,14.33333 14.33333,14.33333h14.33333c7.91917,0 14.33333,-6.41417 14.33333,-14.33333v-14.33333c0,-7.91917 -6.41417,-14.33333 -14.33333,-14.33333zM78.83333,129v14.33333h71.66667v-14.33333z"></path></g></g></svg>