<svg xmlns="http://www.w3.org/2000/svg" x="0px" y="0px"
width="24" height="24"
viewBox="0 0 172 172"
style=" fill:#000000;"><g fill="none" fill-rule="nonzero" stroke="none" stroke-width="1" stroke-linecap="butt" stroke-linejoin="miter" stroke-miterlimit="10" stroke-dasharray="" stroke-dashoffset="0" font-family="none" font-weight="none" font-size="none" text-anchor="none" style="mix-blend-mode: normal"><path d="M0,172v-172h172v172z" fill="none"></path><g fill="#39c2d8"><path d="M35.76335,21.5c-7.90483,0 -14.26335,6.4285 -14.26335,14.33333v100.33333c0,7.90483 6.35851,14.33333 14.26335,14.33333h58.18717c-10.54217,-12.35533 -20.89733,-30.48532 -11.67383,-50.23666c1.204,-2.57283 2.74584,-4.91084 4.43717,-7.09668h-7.95052v-14.33333h36.36524c6.18483,0 12.01693,1.4312 17.38476,4.2692c5.36783,-2.838 11.1931,-4.2692 17.37077,-4.2692h0.05599c0.16483,0 0.32507,0.04199 0.48991,0.04199v-43.04199c0,-7.90483 -6.4285,-14.33333 -14.33333,-14.33333zM50.09668,50.16667h14.33333v14.33333h-14.33333zM78.76334,50.16667h43v14.33333h-43zM50.09668,78.83333h14.33333v14.33333h-14.33333zM115.21257,93.15267c-8.2345,0.01433 -16.19981,5.30972 -19.87631,13.17155c-7.79733,16.69117 6.94316,33.42858 20.66016,46.14941l1.5957,1.48372c3.51167,3.36117 10.06771,8.3766 14.99121,11.99577c4.91633,-3.61917 11.46006,-8.61511 14.90723,-11.91178l1.65169,-1.53972c13.7385,-12.74233 28.48549,-29.48624 20.68815,-46.17741c-3.66933,-7.85467 -11.64248,-13.14322 -19.84831,-13.15756h-0.02799c-4.55083,0 -8.81265,1.2713 -12.63965,3.7653l-4.71712,3.07942l-4.73112,-3.07942c-3.83417,-2.50117 -8.10281,-3.7793 -12.65365,-3.7793zM50.09668,107.5h14.33333v14.33333h-14.33333z"></path></g></g></svg>